<svg width="198" height="36" viewBox="0 0 198 36" fill="none" xmlns="http://www.w3.org/2000/svg">
<path d="M86.9399 16.8047L77.6507 33.9014C76.8859 35.3089 75.3609 36.127 73.7687 35.9839C70.8651 35.7228 69.1995 32.5425 70.6335 29.9976L84.4053 5.55857C85.5734 3.48562 87.7642 2.20377 90.1388 2.20377C92.4664 2.20377 94.6211 3.43571 95.8064 5.44418L100.643 13.6391C101.307 14.765 101.278 16.1711 100.567 17.2684C99.2456 19.3091 96.2873 19.3693 94.8841 17.384L94.1728 16.3775C92.3465 13.7935 88.451 14.0236 86.9399 16.8047Z" fill="#FEFEFE"/>
<path d="M101.347 19.1953L110.636 2.0986C111.401 0.691111 112.926 -0.126988 114.518 0.016141C117.422 0.277157 119.087 3.4575 117.653 6.00238L103.881 30.4414C102.713 32.5144 100.522 33.7962 98.1478 33.7962C95.8203 33.7962 93.6656 32.5643 92.4803 30.5558L87.6441 22.3609C86.9796 21.235 87.0088 19.8289 87.7194 18.7316C89.0411 16.6909 91.9993 16.6307 93.4025 18.616L94.1138 19.6225C95.9401 22.2065 99.8356 21.9764 101.347 19.1953Z" fill="#FEFEFE"/>
<path d="M4.54661 25.8302H0V9.58385H4.83682L9.33506 15.6702L11.7051 19.4044H12.0195L11.8018 15.8641V9.58385H16.3485V25.8302H11.5116L6.72318 19.5741L4.66753 16.3734H4.35314L4.54661 19.4771V25.8302Z" fill="#FEFEFE"/>
<path d="M24.5548 26.0727C20.3226 26.0727 17.4447 23.6721 17.4447 19.7196C17.4447 15.7429 20.3226 13.3666 24.5548 13.3666C28.787 13.3666 31.6649 15.7429 31.6649 19.7196C31.6649 23.6721 28.787 26.0727 24.5548 26.0727ZM24.5548 22.0474C26.6104 22.0474 27.1667 21.4897 27.1667 19.7196C27.1667 17.9495 26.6104 17.3675 24.5548 17.3675C22.4991 17.3675 21.9429 17.9495 21.9429 19.7196C21.9429 21.4897 22.4991 22.0474 24.5548 22.0474Z" fill="#FEFEFE"/>
<path d="M38.2953 26.0727C34.571 26.0727 32.5153 23.6721 32.5153 19.7196C32.5153 15.7429 34.5226 13.3666 38.1019 13.3666C40.9798 13.3666 42.3341 14.7245 42.6968 16.7613H42.9387V9.58385H47.4853V25.8302H43.2289V22.5324H42.987C42.6001 24.9572 41.1491 26.0727 38.2953 26.0727ZM37.1103 19.7196C37.1103 21.3442 37.8358 21.902 39.9399 21.902C41.9713 21.902 42.9387 21.514 42.9387 19.7439V19.5741C42.9387 17.8525 41.9713 17.513 39.9399 17.513C37.8358 17.513 37.1103 18.095 37.1103 19.7196Z" fill="#FEFEFE"/>
<path d="M55.7307 26.0727C51.5953 26.0727 48.6932 24.3025 48.6932 19.7196C48.6932 15.7429 51.5711 13.3666 55.634 13.3666C59.842 13.3666 62.5265 15.4762 62.5265 19.4044C62.5265 19.8166 62.5023 20.1318 62.4539 20.5683H52.9012C52.9738 22.0474 53.6267 22.4597 55.5615 22.4597C57.3994 22.4597 57.8831 22.1444 57.8831 21.417V21.1503H62.4297V21.4412C62.4297 24.157 59.842 26.0727 55.7307 26.0727ZM55.5373 16.8583C53.8686 16.8583 53.1672 17.222 52.9738 18.2647H58.125C57.9557 17.222 57.2302 16.8583 55.5373 16.8583Z" fill="#FEFEFE"/>
<path d="M139.657 25.8302H125.751V9.58385H130.297V21.7322H139.657V25.8302Z" fill="#FEFEFE"/>
<path d="M144.808 26.0727C142.051 26.0727 140.503 24.8117 140.503 22.7264C140.503 21.0048 141.688 19.7681 144.445 19.5014L149.403 19.0164V18.7739C149.403 17.5373 148.871 17.3433 147.25 17.3433C145.751 17.3433 145.291 17.6343 145.291 18.6527V18.7497H140.745V18.7012C140.745 15.4519 143.453 13.3666 147.589 13.3666C151.845 13.3666 153.901 15.4519 153.901 18.8709V25.8302H149.645V23.2599H149.403C148.943 24.9815 147.444 26.0727 144.808 26.0727ZM145.074 22.4354C145.074 22.8234 145.461 22.8961 146.162 22.8961C148.363 22.8961 149.258 22.6294 149.379 21.5382L145.654 21.9747C145.243 22.0232 145.074 22.1687 145.074 22.4354Z" fill="#FEFEFE"/>
<path d="M157.933 29.9524H155.732V25.8302H159.263C159.626 25.8302 159.916 25.7817 160.11 25.6847L154.281 13.6091H159.457L161.561 18.4102L162.431 21.223H162.746L163.544 18.3617L165.358 13.6091H170.436L164.656 26.3151C163.35 29.2007 161.488 29.9524 157.933 29.9524Z" fill="#FEFEFE"/>
<path d="M177.726 26.0727C173.591 26.0727 170.689 24.3025 170.689 19.7196C170.689 15.7429 173.567 13.3666 177.63 13.3666C181.838 13.3666 184.522 15.4762 184.522 19.4044C184.522 19.8166 184.498 20.1318 184.449 20.5683H174.897C174.969 22.0474 175.622 22.4597 177.557 22.4597C179.395 22.4597 179.879 22.1444 179.879 21.417V21.1503H184.425V21.4412C184.425 24.157 181.838 26.0727 177.726 26.0727ZM177.533 16.8583C175.864 16.8583 175.163 17.222 174.969 18.2647H180.121C179.951 17.222 179.226 16.8583 177.533 16.8583Z" fill="#FEFEFE"/>
<path d="M190.285 25.8302H185.739V13.6091H189.995V16.8098H190.237C190.575 14.7972 191.833 13.3666 194.251 13.3666C196.936 13.3666 198 15.1367 198 17.5858V20.0106H193.453V18.5799C193.453 17.5615 193.066 17.1978 191.881 17.1978C190.648 17.1978 190.285 17.5615 190.285 18.5314V25.8302Z" fill="#FEFEFE"/>
</svg>
